PathFileType	4	(X/Y/Z)	C:\Users\Public\Documents\Vicon Data\AADs Machine\Frameless Spring Test\Dec182020\10lbsSpring1.trc
DataRate	CameraRate	NumFrames	NumMarkers	Units	OrigDataRate	OrigDataStartFrame	OrigNumFrames
100.0	100.0	23	9	mm	100.0	911	1041	
Frame#	Time	Heel			MP5			Toe			MMAL			LMAL			Shank			SpringTop			LateralKnee			MedialKnee			
		X1	Y1	Z1	X2	Y2	Z2	X3	Y3	Z3	X4	Y4	Z4	X5	Y5	Z5	X6	Y6	Z6	X7	Y7	Z7	X8	Y8	Z8	X9	Y9	Z9	
911	9.1	-186.80225	46.406132	-771.03687	-238.10747	38.659439	-600.95697	-173.13029	39.547966	-529.79279	-115.60602	110.2527	-709.64178	-237.54076	119.03208	-706.03253	-162.15359	267.38486	-628.66937	-180.05122	194.51793	-752.26843	-198.29666	471.60861	-678.98761	-120.36086	466.72153	-676.48212
912	9.11	-186.77293	46.452053	-771.03119	-238.06589	38.744221	-600.95245	-173.10635	39.595215	-529.80566	-115.60921	110.27048	-709.64429	-237.49532	119.126	-706.02728	-162.07362	267.53262	-628.96771	-180.00035	194.49652	-752.38196	-198.23283	471.76929	-679.5567	-120.23611	466.81323	-676.99133
913	9.12	-186.74806	46.375519	-771.06476	-238.05013	38.70224	-600.94733	-173.0956	39.526905	-529.80157	-115.53416	110.17783	-709.66211	-237.41547	119.01329	-706.12238	-161.98647	267.5755	-629.23096	-179.91489	194.35612	-752.56519	-198.45451	471.84525	-679.92523	-120.21468	466.83536	-677.47626
914	9.13	-186.77908	46.380772	-771.0531	-238.06383	38.707745	-600.95361	-173.10031	39.540562	-529.79919	-115.33155	110.32488	-709.69751	-237.40636	118.97466	-706.1145	-161.91808	267.7052	-629.3764	-179.88846	194.3175	-752.73004	-198.62013	471.90158	-680.47168	-120.08684	467.0437	-677.90692
915	9.14	-186.75632	46.441341	-771.0152	-238.07542	38.724625	-600.94836	-173.11707	39.549557	-529.77887	-115.56493	110.24499	-709.6449	-237.47395	119.11438	-705.98065	-161.90425	267.86584	-629.56781	-179.81145	194.34271	-752.84961	-199.09554	472.05392	-680.99133	-120.13241	467.14978	-678.43097
916	9.15	-186.75072	46.418491	-771.05389	-238.04164	38.704323	-600.96613	-173.08687	39.537731	-529.80841	-115.55248	110.20645	-709.66498	-237.40941	119.04948	-706.0448	-161.86261	267.97333	-629.87738	-179.81677	194.20305	-753.04303	-198.69614	471.99188	-681.72253	-120.20765	467.16437	-679.086
917	9.16	-186.77248	46.368	-771.06354	-238.06149	38.687496	-600.94281	-173.1026	39.531429	-529.79474	-115.5556	110.19466	-709.68542	-237.37967	118.91698	-706.15491	-161.85776	268.12021	-630.10657	-179.83881	194.07709	-753.25281	-199.30072	472.23978	-682.33997	-120.2746	467.17883	-679.93005
918	9.17	-186.78758	46.406998	-771.01654	-238.08653	38.691933	-600.94348	-173.12477	39.535942	-529.78595	-115.58674	110.26907	-709.68402	-237.50851	119.00238	-706.06042	-161.9537	268.28177	-630.50293	-179.94991	193.99924	-753.39551	-199.52231	472.34119	-683.08594	-120.70441	466.84714	-680.73962
919	9.18	-186.7518	46.447617	-771.04089	-238.07024	38.704018	-600.97327	-173.11122	39.54562	-529.81616	-115.57407	110.26155	-709.68597	-237.50751	119.05882	-706.03192	-161.97263	268.48859	-630.89313	-179.94667	193.84448	-753.53528	-199.2542	472.33142	-683.91418	-120.77764	466.93533	-681.5625
920	9.19	-186.76924	46.385406	-771.06427	-238.05832	38.68285	-600.94122	-173.10707	39.522839	-529.80011	-115.37911	110.36585	-709.70685	-237.45174	118.94782	-706.08514	-162.16628	268.55341	-631.55127	-180.55714	193.49048	-753.27478	-199.32648	472.28729	-684.81421	-120.60487	467.33054	-682.40906
921	9.2	-186.79187	46.346729	-771.06879	-238.07732	38.639961	-600.95746	-173.12915	39.508289	-529.81012	-115.40026	110.34054	-709.7406	-237.46397	118.87854	-706.14178	-162.28084	268.76611	-632.02039	-180.65559	193.29506	-753.5014	-199.59814	472.38589	-685.81506	-120.7951	467.26639	-683.40448
922	9.21	-186.77379	46.447308	-771.03119	-238.09058	38.697002	-600.95288	-173.13023	39.563564	-529.78497	-115.42791	110.44543	-709.71655	-237.52327	119.00769	-706.03278	-162.35107	269.039	-632.48285	-180.73039	193.24963	-753.74493	-199.81563	472.45444	-686.8324	-121.07042	467.26935	-684.53235
923	9.22	-186.77924	46.405293	-771.04749	-238.08311	38.661457	-600.94391	-173.11864	39.511135	-529.80377	-115.41998	110.3913	-709.74817	-237.4789	118.92815	-706.10846	-162.35675	269.20398	-633.04468	-180.77374	192.98978	-754.03479	-199.53735	472.4357	-687.97137	-121.01892	467.55261	-685.60162
924	9.23	-186.79208	46.334259	-771.08167	-238.07326	38.630127	-600.95959	-173.09634	39.493515	-529.82336	-115.39113	110.36119	-709.78363	-237.45282	118.83073	-706.20111	-162.16615	269.50485	-633.33124	-180.85025	192.75717	-754.34894	-199.59093	472.32303	-689.12311	-121.13395	467.48499	-686.73462
925	9.24	-186.77028	46.411499	-771.06604	-238.11127	38.696945	-600.92804	-173.15475	39.565491	-529.78357	-115.38937	110.4493	-709.7511	-237.49539	118.87794	-706.12097	-162.21625	269.77155	-633.85455	-180.85376	192.68922	-754.61224	-199.58813	472.16629	-690.06079	-121.31993	467.50916	-687.94501
926	9.25	-186.75626	46.430614	-771.05981	-238.07713	38.708706	-600.94647	-173.11128	39.553692	-529.8017	-115.396	110.43488	-709.75244	-237.48523	118.96085	-706.08069	-162.10612	270.00989	-634.41797	-180.83316	192.54977	-754.86786	-199.81541	472.37589	-691.37946	-121.2979	467.5199	-689.0307
927	9.26	-186.76596	46.38044	-771.08545	-238.04993	38.703899	-600.96979	-173.06999	39.537029	-529.82684	-115.34071	110.35323	-709.82983	-237.39554	118.8698	-706.18707	-162.01221	270.21072	-634.97906	-180.84425	192.3595	-755.1745	-199.45842	472.37939	-692.57574	-121.14793	467.57309	-690.22229
928	9.27	-186.78403	46.355221	-771.08032	-238.048	38.743229	-600.93719	-173.10287	39.563435	-529.797	-115.31739	110.33799	-709.84705	-237.39365	118.84918	-706.20294	-162.13124	270.32864	-635.71228	-180.95688	192.0269	-755.17798	-199.37793	472.44446	-693.6059	-121.09595	467.60269	-691.34821
929	9.28	-186.72462	46.414524	-771.07043	-238.03284	38.790447	-600.95105	-173.05531	39.60038	-529.82648	-115.28497	110.33705	-709.8476	-237.37898	119.00187	-706.13483	-161.85704	270.59579	-635.91547	-180.84418	191.97366	-755.40875	-199.02592	472.32874	-694.40393	-121.00068	467.67331	-692.21967
930	9.29	-186.73744	46.396523	-771.09113	-238.01453	38.824265	-600.96234	-173.05217	39.588818	-529.81207	-115.20632	110.31602	-709.88879	-237.23367	118.94965	-706.22406	-161.66528	270.72885	-636.29028	-180.71973	192.00717	-755.78369	-198.77745	472.61246	-695.47028	-120.86655	467.62479	-693.18298
931	9.3	-186.7197	46.33683	-771.09869	-237.96622	38.82737	-600.96521	-173.01062	39.566391	-529.81433	-115.13541	110.22988	-709.93665	-237.14406	118.89304	-706.26605	-161.52275	270.81195	-636.60913	-180.62526	191.84659	-756.01489	-198.69057	472.69077	-696.19	-120.7945	467.73209	-693.93787
932	9.31	-186.70294	46.356556	-771.10962	-237.96051	38.862682	-600.96307	-172.97429	39.564659	-529.84924	-115.10811	110.19727	-709.96301	-237.10471	119.00295	-706.21613	-161.40829	270.91699	-636.92389	-180.53371	191.78001	-756.17987	-198.82297	472.85016	-696.67444	-120.43542	467.65659	-694.59357
933	9.32	-186.66296	46.407654	-771.09192	-237.96315	38.952534	-600.9599	-172.99986	39.642776	-529.82678	-115.05836	110.22791	-709.96869	-236.98965	119.03467	-706.20746	-161.33801	270.99585	-637.11249	-180.54558	191.65807	-756.06311	-198.67696	472.96677	-697.07104	-120.17107	467.72342	-695.02118
